<svg width="265.06000976562495px" height="117.239990234375px" xmlns="http://www.w3.org/2000/svg" viewBox="117.46999511718752 16.3800048828125 265.06000976562495 117.239990234375" style="background: rgb(255, 255, 255) none repeat scroll 0% 0%;" preserveAspectRatio="xMidYMid"><defs><linearGradient id="editing-glowing-gradient" x1="0.919335283972712" x2="0.08066471602728792" y1="0.2276804824924865" y2="0.7723195175075135"><stop offset="0" stop-color="#19acf3"></stop><stop offset="1" stop-color="#1e4ff6"></stop></linearGradient><filter id="editing-glowing" x="-100%" y="-100%" width="300%" height="300%"><feGaussianBlur in="SourceGraphic" result="blur" stdDeviation="1"></feGaussianBlur><feMerge><feMergeNode in="blur"></feMergeNode><feMergeNode in="SourceGraphic"></feMergeNode></feMerge></filter></defs><g filter="url(#editing-glowing)"><g transform="translate(163.041468501091, 98.84500122070312)"><path d="M36.35 2.64L36.35 2.64Q36.35 2.86 35.97 2.86L35.97 2.86L35.97 2.86Q35.70 2.86 35.31 2.64L35.31 2.64L35.31 2.64Q34.92 2.42 34.70 2.04L34.70 2.04L34.70 2.04Q34.27 1.10 34.27-0.28L34.27-0.28L34.32-2.53L34.32-2.53Q36.02-12.54 38.34-22.66L38.34-22.66L38.34-22.66Q39.10-25.36 39.63-27.77L39.63-27.77L39.63-27.77Q40.15-30.20 40.26-30.86L40.26-30.86L40.26-30.86Q40.26-31.02 39.96-30.72L39.96-30.72L39.96-30.72Q39.66-30.41 39.38-30.00L39.38-30.00L39.38-30.00Q39.10-29.59 39.16-29.43L39.16-29.43L37.79-27.39L37.79-27.39Q37.45-27.06 36.24-24.86L36.24-24.86L36.24-24.86Q35.42-23.10 34.76-22.11L34.76-22.11L33.22-19.20L33.22-19.20Q31.52-16.06 31.13-15.40L31.13-15.40L31.13-15.40Q30.58-14.57 29.54-12.54L29.54-12.54L29.54-12.54Q28.98-11.22 27.55-9.40L27.55-9.40L27.55-9.40Q27.11-8.80 26.70-8.09L26.70-8.09L26.70-8.09Q26.29-7.37 26.18-7.15L26.18-7.15L26.18-7.15Q26.18-6.88 25.05-5.28L25.05-5.28L25.05-5.28Q23.93-3.69 22.99-2.64L22.99-2.64L22.99-2.64Q21.73-1.32 20.90-0.74L20.90-0.74L20.90-0.74Q20.07-0.17 19.36-0.17L19.36-0.17L19.36-0.17Q18.43-0.17 17.32-1.21L17.32-1.21L17.32-1.21Q16.61-1.98 16.31-3.02L16.31-3.02L16.31-3.02Q16.00-4.07 16.00-5.61L16.00-5.61L16.00-5.61Q16.00-6.99 16.39-10.23L16.39-10.23L16.39-10.23Q16.45-10.51 17.43-16.11L17.43-16.11L17.43-16.11Q18.48-21.78 18.70-22.33L18.70-22.33L18.70-22.33Q18.75-22.66 18.75-23.10L18.75-23.10L18.75-23.10Q18.75-23.59 18.59-23.59L18.59-23.59L18.59-23.59Q18.43-23.59 17.98-22.88L17.98-22.88L17.98-22.88Q17.82-22.66 16.03-19.80L16.03-19.80L16.03-19.80Q14.24-16.94 12.21-12.48L12.21-12.48L12.21-12.48Q9.02-6.60 7.48-3.66L7.48-3.66L7.48-3.66Q5.94-0.71 5.22 0.55L5.22 0.55L5.22 0.55Q4.29 2.37 4.13 2.53L4.13 2.53L4.13 2.53Q3.30 2.53 2.04 1.16L2.04 1.16L2.04 1.16Q1.87 0.82 1.87 0.55L1.87 0.55L1.87 0.55Q1.87 0.17 2.23-0.71L2.23-0.71L2.23-0.71Q2.58-1.59 3.25-3.02L3.25-3.02L3.25-3.02Q4.95-6.38 5.50-6.82L5.50-6.82L5.50-6.82Q6.16-7.70 6.27-8.74L6.27-8.74L6.27-8.74Q6.99-9.73 8.30-12.32L8.30-12.32L8.30-12.32Q9.13-13.64 10.26-15.62L10.26-15.62L10.26-15.62Q11.38-17.60 12.27-19.41L12.27-19.41L13.80-22.11L13.80-22.11Q15.95-25.85 17.24-27.89L17.24-27.89L17.24-27.89Q18.54-29.92 19.20-30.58L19.20-30.58L19.20-30.58Q20.07-31.63 20.07-32.23L20.07-32.23L20.07-32.23Q20.07-33.38 20.54-34.35L20.54-34.35L20.54-34.35Q21.01-35.31 21.50-35.20L21.50-35.20L21.50-35.20Q22.16-35.20 22.58-35.06L22.58-35.06L22.58-35.06Q22.99-34.92 23.43-34.38L23.43-34.38L23.43-34.38Q23.54-34.21 23.79-33.85L23.79-33.85L23.79-33.85Q24.04-33.49 24.17-33.08L24.17-33.08L24.17-33.08Q24.31-32.67 24.31-32.06L24.31-32.06L24.31-32.06Q24.31-31.41 24.14-30.41L24.14-30.41L24.14-30.41Q24.09-29.70 23.71-27.17L23.71-27.17L23.71-27.17Q23.48-25.96 23.48-25.68L23.48-25.68L23.48-25.68Q22.05-21.34 20.93-14.82L20.93-14.82L20.93-14.82Q19.80-8.30 19.80-5.67L19.80-5.67L19.80-5.67Q19.80-5.06 19.91-4.84L19.91-4.84L19.91-4.84Q20.30-4.57 20.60-4.79L20.60-4.79L20.60-4.79Q20.90-5.00 21.50-6.21L21.50-6.21L21.50-6.21Q22.22-7.54 23.93-9.63L23.93-9.63L23.93-9.63Q24.04-9.79 26.07-13.26L26.07-13.26L26.07-13.26Q31.13-21.56 35.91-29.92L35.91-29.92L37.34-32.17L37.34-32.17Q38.17-33.49 38.94-34.62L38.94-34.62L38.94-34.62Q39.71-35.75 40.15-36.08L40.15-36.08L40.15-36.08Q40.70-36.52 41.20-36.52L41.20-36.52L41.20-36.52Q42.24-36.52 43.06-35.26L43.06-35.26L43.06-35.26Q43.89-33.99 43.89-32.06L43.89-32.06L43.89-32.06Q43.89-30.58 43.29-27.53L43.29-27.53L43.29-27.53Q42.68-24.48 41.69-21.39L41.69-21.39L41.69-21.39Q41.36-19.86 40.76-17.55L40.76-17.55L40.76-17.55Q40.15-15.23 39.49-13.37L39.49-13.37L39.49-13.37Q39.38-12.43 39.05-11L39.05-11L39.05-11Q38.99-10.72 38.75-9.32L38.75-9.32L38.75-9.32Q38.50-7.92 38.61-7.42L38.61-7.42L38.61-7.42Q37.79-5.94 37.79-1.49L37.79-1.49L37.62-0.22L37.62-0.22Q37.51 1.32 37.40 1.87L37.40 1.87L37.40 1.87Q37.29 2.42 37.07 2.37L37.07 2.37L37.07 2.37Q36.96 2.31 36.74 2.31L36.74 2.31L36.74 2.31Q36.35 2.31 36.35 2.64L36.35 2.64ZM45.48-1.98L45.48-1.98Q45.32-2.31 44.96-2.67L44.96-2.67L44.96-2.67Q44.61-3.02 44.61-3.14L44.61-3.14L44.61-3.14Q44.61-3.74 44.33-4.07L44.33-4.07L44.33-4.07Q44.22-4.18 44.22-4.57L44.22-4.57L44.22-4.57Q44.22-5.45 45.07-7.56L45.07-7.56L45.07-7.56Q45.93-9.68 47.30-12.15L47.30-12.15L47.30-12.15Q47.63-12.48 48.15-13.31L48.15-13.31L48.15-13.31Q48.67-14.13 48.84-14.24L48.84-14.24L48.84-14.24Q48.84-14.46 49.01-14.66L49.01-14.66L49.01-14.66Q49.17-14.85 49.39-14.85L49.39-14.85L49.39-15.18L49.39-15.18Q49.39-15.68 51.20-17.57L51.20-17.57L51.20-17.57Q53.02-19.47 54.17-20.18L54.17-20.18L54.17-20.18Q55.55-21.12 56.98-21.12L56.98-21.12L56.98-21.12Q57.97-21.12 58.69-20.57L58.69-20.57L58.69-20.57Q58.96-20.24 61.22-18.21L61.22-18.21L63.25-16.39L62.26-13.64L62.26-13.64Q61.77-12.15 61.77-10.95L61.77-10.95L61.77-10.95Q61.77-8.86 62.98-6.93L62.98-6.93L62.98-6.93Q63.25-6.33 64.08-5.78L64.08-5.78L64.08-5.78Q64.90-5.22 65.72-5.12L65.72-5.12L65.72-5.12Q66.94-4.90 66.94-3.90L66.94-3.90L66.94-3.90Q66.94-2.81 65.94-2.58L65.94-2.58L65.94-2.58Q65.72-2.53 65.28-2.53L65.28-2.53L65.28-2.53Q62.04-2.53 59.67-7.09L59.67-7.09L59.67-7.09Q59.45-7.42 59.10-8.30L59.10-8.30L59.10-8.30Q58.74-9.19 58.69-9.52L58.69-9.52L58.69-9.52Q58.36-9.07 57.86-8.47L57.86-8.47L57.86-8.47Q57.37-7.87 56.92-7.42L56.92-7.42L56.92-7.42Q50.93-1.43 47.47-1.43L47.47-1.43L47.47-1.43Q46.37-1.43 45.48-1.98L45.48-1.98ZM47.47-5.06L47.47-5.06Q47.47-4.79 48.04-4.90L48.04-4.90L48.04-4.90Q48.62-5.00 49.47-5.45L49.47-5.45L49.47-5.45Q50.33-5.88 51.20-6.60L51.20-6.60L51.20-6.60Q55.94-10.67 58.03-13.70L58.03-13.70L59.23-15.68L59.23-15.68Q58.69-16.83 58.08-17.35L58.08-17.35L58.08-17.35Q57.48-17.88 56.98-17.88L56.98-17.88L56.98-17.88Q55.83-17.88 53.35-14.99L53.35-14.99L53.35-14.99Q50.88-12.10 48.84-8.20L48.84-8.20L48.84-8.20Q48.34-7.26 47.96-6.30L47.96-6.30L47.96-6.30Q47.58-5.33 47.47-5.06L47.47-5.06ZM72.49 0.22L72.49 0.22Q71.50-0.17 70.56-0.91L70.56-0.91L70.56-0.91Q69.63-1.65 69.30-2.20L69.30-2.20L69.30-2.20Q69.30-2.31 69.30-2.58L69.30-2.58L69.30-2.58Q69.30-2.86 69.47-2.94L69.47-2.94L69.47-2.94Q69.63-3.02 70.07-3.02L70.07-3.02L70.07-3.02Q71.01-3.02 73.04-2.81L73.04-2.81L73.04-2.81Q74.25-2.81 75.79-3.11L75.79-3.11L75.79-3.11Q77.33-3.41 77.50-3.79L77.50-3.79L77.50-3.79Q77.66-3.79 77.66-3.85L77.66-3.85L77.66-3.85Q77.66-3.96 77.22-4.40L77.22-4.40L77.22-4.40Q77.11-4.40 76.73-4.59L76.73-4.59L76.73-4.59Q76.34-4.79 76.23-4.79L76.23-4.79L76.23-4.79Q76.23-5.00 75.73-5.36L75.73-5.36L75.73-5.36Q75.24-5.72 74.64-6.00L74.64-6.00L74.64-6.00Q73.04-7.32 72.38-7.95L72.38-7.95L72.38-7.95Q71.72-8.58 71.89-8.86L71.89-8.86L71.89-9.13L71.89-9.13Q71.50-9.13 71.03-10.20L71.03-10.20L71.03-10.20Q70.56-11.28 70.56-12.21L70.56-12.21L70.56-12.21Q70.56-13.20 71.42-14.96L71.42-14.96L71.42-14.96Q72.27-16.72 73.37-17.82L73.37-17.82L73.37-17.82Q74.91-19.25 77.36-20.84L77.36-20.84L77.36-20.84Q79.81-22.44 81.24-22.88L81.24-22.88L81.24-22.88Q82.17-23.27 83.11-23.27L83.11-23.27L83.11-23.27Q83.99-23.27 84.59-22.88L84.59-22.88L84.59-22.88Q85.31-22.44 85.99-21.61L85.99-21.61L85.99-21.61Q86.68-20.79 86.90-20.13L86.90-20.13L86.90-20.13Q86.90-18.92 86.65-17.79L86.65-17.79L86.65-17.79Q86.41-16.66 85.91-16.66L85.91-16.66L85.91-16.66Q85.86-16.66 85.75-16.61L85.75-16.61L85.75-16.61Q85.64-16.55 85.64-16.34L85.64-16.34L85.64-16.34Q85.64-16.11 85.42-15.76L85.42-15.76L85.42-15.76Q85.20-15.40 84.81-15.07L84.81-15.07L84.81-15.07Q83.60-14.19 82.83-14.19L82.83-14.19L82.83-14.19Q82.23-14.19 82.06-14.79L82.06-14.79L82.06-14.79Q81.95-14.90 81.84-15.13L81.84-15.13L81.84-15.13Q81.73-15.35 81.56-15.35L81.56-15.35L81.56-15.35Q81.51-15.35 81.37-15.54L81.37-15.54L81.37-15.54Q81.24-15.73 81.24-16.06L81.24-16.06L81.24-16.06Q81.24-16.23 81.37-16.42L81.37-16.42L81.37-16.42Q81.51-16.61 81.56-16.66L81.56-16.66L81.56-16.66Q81.90-16.66 82.67-17.96L82.67-17.96L82.67-17.96Q83.44-19.25 83.44-19.69L83.44-19.69L83.44-19.69Q83.44-20.02 83.35-20.07L83.35-20.07L83.35-20.07Q83.27-20.13 82.83-20.13L82.83-20.13L82.83-20.13Q78.54-18.21 77.50-17.21L77.50-17.21L77.50-17.21Q77.33-16.89 77.25-16.77L77.25-16.77L77.25-16.77Q77.17-16.66 76.95-16.66L76.95-16.66L76.95-16.66Q76.95-17.16 74.03-12.93L74.03-12.93L74.03-12.93Q73.92-12.81 73.78-12.27L73.78-12.27L73.78-12.27Q73.65-11.71 73.65-11.33L73.65-11.33L73.65-11.33Q73.54-10.89 73.54-10.84L73.54-10.84L73.54-10.84Q73.54-10.62 73.73-10.39L73.73-10.39L73.73-10.39Q73.92-10.18 74.25-9.93L74.25-9.93L74.25-9.93Q74.58-9.68 74.91-9.40L74.91-9.40L74.91-9.40Q77.77-7.26 78.90-6.19L78.90-6.19L78.90-6.19Q80.03-5.12 80.25-4.40L80.25-4.40L80.25-4.40Q80.96-3.30 80.96-2.42L80.96-2.42L80.96-2.42Q80.96-1.76 80.47-1.26L80.47-1.26L80.47-1.26Q79.97-0.77 78.98-0.33L78.98-0.33L78.98-0.33Q78.38-0.06 76.95 0.14L76.95 0.14L76.95 0.14Q75.52 0.33 74.14 0.33L74.14 0.33L74.14 0.33Q73.37 0.33 72.49 0.22L72.49 0.22ZM103.95-20.30L103.95-20.30Q104.83-19.41 104.83-18.48L104.83-18.48L104.83-18.48Q104.83-17.49 103.51-15.02L103.51-15.02L103.51-15.02Q103.07-13.75 102.55-12.65L102.55-12.65L102.55-12.65Q102.03-11.55 101.75-11.22L101.75-11.22L100.48-8.30L100.48-8.30Q99.66-6.49 98.45-4.07L98.45-4.07L98.45-4.07Q96.97-0.99 96.36 0.49L96.36 0.49L95.64 1.65L95.64 1.65Q92.89 6.05 91.41 7.81L91.41 7.81L91.41 7.81Q88.39 10.51 86.73 10.95L86.73 10.95L86.73 10.95Q86.02 11.17 85.03 11.17L85.03 11.17L85.03 11.17Q83.22 11.17 81.59 10.37L81.59 10.37L81.59 10.37Q79.97 9.57 79.75 8.53L79.75 8.53L79.75 8.53Q79.70 8.14 80.03 7.70L80.03 7.70L80.03 7.70Q80.36 7.26 80.74 7.26L80.74 7.26L80.74 7.26Q81.02 7.26 81.18 7.48L81.18 7.48L81.18 7.48Q81.62 7.81 82.47 8.11L82.47 8.11L82.47 8.11Q83.33 8.42 84.31 8.42L84.31 8.42L84.31 8.42Q84.70 8.42 85.36 8.30L85.36 8.30L85.36 8.30Q86.46 8.09 87.67 6.99L87.67 6.99L87.67 6.99Q88.88 5.88 89.87 4.57L89.87 4.57L89.87 4.57Q91.74 1.81 93.89-2.31L93.89-2.31L93.89-2.31Q93.11-2.53 92.40-3.38L92.40-3.38L92.40-3.38Q91.69-4.24 91.27-5.17L91.27-5.17L91.27-5.17Q90.86-6.11 90.97-6.54L90.97-6.54L90.97-7.15L90.97-7.15Q90.47-7.15 90.17-9.02L90.17-9.02L90.17-9.02Q89.87-10.89 89.87-13.37L89.87-13.37L89.87-13.37Q89.87-14.30 89.98-15.73L89.98-15.73L89.98-15.73Q90.20-16.61 90.23-17.90L90.23-17.90L90.23-17.90Q90.25-19.20 90.25-19.58L90.25-19.58L90.25-19.80L90.25-19.80Q90.25-20.46 90.39-20.73L90.39-20.73L90.39-20.73Q90.53-21.01 90.86-21.23L90.86-21.23L90.86-21.23Q91.30-21.45 91.74-21.45L91.74-21.45L91.74-21.45Q93.28-21.45 93.28-17.38L93.28-17.38L93.28-17.38Q93.28-16.77 93.17-15.02L93.17-15.02L93.17-15.02Q93.11-14.24 93.11-12.71L93.11-12.71L93.11-12.71Q93.11-9.85 93.61-7.65L93.61-7.65L93.61-7.65Q94.11-5.45 95.09-4.62L95.09-4.62L95.42-5.39L95.42-5.39Q96.03-6.99 96.36-7.42L96.36-7.42L96.36-7.42Q97.13-9.02 97.24-9.46L97.24-9.46L97.24-9.46Q97.35-9.85 97.84-10.72L97.84-10.72L98.56-12.21L98.56-12.21Q98.67-12.54 99.28-14.33L99.28-14.33L99.28-14.33Q99.88-16.11 100.48-17.21L100.48-17.21L100.48-17.21Q100.70-17.66 101.14-18.51L101.14-18.51L101.14-18.51Q101.59-19.36 101.86-19.75L101.86-19.75L101.86-19.75Q102.14-20.13 102.47-20.24L102.47-20.24L102.47-20.24Q102.91-20.63 103.18-20.63L103.18-20.63L103.18-20.63Q103.40-20.63 103.95-20.30L103.95-20.30ZM110.44-0.82L110.44-0.82Q109.78-0.82 109.39-1.04L109.39-1.04L109.39-1.04Q109.01-1.26 108.30-1.87L108.30-1.87L108.30-1.87Q106.48-3.79 106.48-5.39L106.48-5.39L106.48-5.39Q106.48-5.78 106.53-5.94L106.53-5.94L106.53-5.94Q106.70-6.33 106.67-6.71L106.67-6.71L106.67-6.71Q106.64-7.09 106.64-7.21L106.64-7.21L106.64-7.21Q106.42-7.42 106.42-7.51L106.42-7.51L106.42-7.51Q106.42-7.59 106.53-7.67L106.53-7.67L106.53-7.67Q106.64-7.75 106.70-7.87L106.70-7.87L106.70-7.87Q107.03-7.87 106.92-8.47L106.92-8.47L106.92-8.47Q106.81-8.91 107.36-10.42L107.36-10.42L107.36-10.42Q107.91-11.94 108.73-13.20L108.73-13.20L108.73-13.20Q109.34-14.19 110.52-15.68L110.52-15.68L110.52-15.68Q111.70-17.16 112.64-17.93L112.64-17.93L112.64-17.93Q113.96-19.09 115.00-19.64L115.00-19.64L115.00-19.64Q116.05-20.18 117.31-20.46L117.31-20.46L117.31-20.46Q118.41-20.73 118.80-20.73L118.80-20.73L118.80-20.73Q119.19-20.73 119.49-20.54L119.49-20.54L119.49-20.54Q119.79-20.35 120.28-19.86L120.28-19.86L120.28-19.86Q121.77-19.20 122.35-18.18L122.35-18.18L122.35-18.18Q122.92-17.16 122.92-15.02L122.92-15.02L122.92-15.02Q122.92-11.44 120.01-7.26L120.01-7.26L120.01-7.26Q118.75-5.45 117.64-4.48L117.64-4.48L117.64-4.48Q116.55-3.52 114.73-2.42L114.73-2.42L114.73-2.42Q113.57-1.59 112.61-1.24L112.61-1.24L112.61-1.24Q111.65-0.88 110.44-0.82L110.44-0.82ZM115.72-6.66L115.72-6.66Q117.04-8.14 117.84-9.46L117.84-9.46L117.84-9.46Q118.63-10.78 119.35-12.81L119.35-12.81L119.35-12.81Q119.63-13.75 119.63-15.07L119.63-15.07L119.63-15.07Q119.63-16.72 119.19-16.94L119.19-16.94L119.19-16.94Q118.63-17.21 118.08-17.21L118.08-17.21L118.08-17.21Q116.88-17.21 115.55-16.11L115.55-16.11L115.55-16.11Q113.96-14.74 112.69-12.73L112.69-12.73L112.69-12.73Q111.43-10.72 110.11-7.75L110.11-7.75L110.11-7.75Q109.56-6.60 109.56-5.50L109.56-5.50L109.56-5.50Q109.56-4.67 109.97-4.18L109.97-4.18L109.97-4.18Q110.38-3.69 111.10-3.69L111.10-3.69L111.10-3.69Q112.91-3.69 115.72-6.66L115.72-6.66ZM138.66-0.11L138.66-0.11Q137.34-1.38 136.68-3.85L136.68-3.85L136.68-3.85Q136.56-4.18 136.56-5.00L136.56-5.00L136.56-5.00Q136.56-5.83 136.56-6.16L136.56-6.16L136.56-6.16Q136.24-5.33 135.36-4.67L135.36-4.67L135.36-4.67Q134.09-3.41 132.83-2.81L132.83-2.81L132.83-2.81Q130.90-1.54 129.69-1.54L129.69-1.54L129.69-1.54Q128.59-1.54 127.60-2.75L127.60-2.75L127.60-2.75Q126.89-3.35 126.53-3.96L126.53-3.96L126.53-3.96Q126.17-4.57 126.17-5.45L126.17-5.45L126.17-5.45Q126.17-6.05 126.34-6.76L126.34-6.76L126.34-6.76Q126.45-8.80 126.91-10.67L126.91-10.67L126.91-10.67Q127.38-12.54 128.70-15.46L128.70-15.46L128.70-15.46Q130.46-18.92 131.23-20.07L131.23-20.07L131.23-20.07Q131.50-20.18 131.94-20.18L131.94-20.18L131.94-20.18Q132.50-20.18 132.85-19.86L132.85-19.86L132.85-19.86Q133.21-19.52 133.27-18.98L133.27-18.98L133.27-18.98Q133.43-18.75 133.43-18.37L133.43-18.37L133.43-18.37Q133.43-17.00 131.78-13.86L131.78-13.86L131.78-13.86Q129.63-8.69 129.63-6.71L129.63-6.71L129.63-6.71Q129.63-5.55 130.30-5.33L130.30-5.33L130.30-5.33Q130.57-5.17 130.90-5.17L130.90-5.17L130.90-5.17Q132.28-5.17 134.20-7.04L134.20-7.04L134.20-7.04Q136.13-8.91 137.88-13.04L137.88-13.04L137.88-13.04Q138.66-14.90 138.82-16.89L138.82-16.89L138.82-16.89Q138.77-17.05 138.77-17.38L138.77-17.38L138.77-17.38Q138.77-18.37 139.75-18.98L139.75-18.98L139.75-18.98Q139.97-19.30 140.36-19.50L140.36-19.50L140.36-19.50Q140.75-19.69 140.86-19.47L140.86-19.47L141.74-19.52L141.74-19.52Q141.90-19.58 142.06-19.22L142.06-19.22L142.06-19.22Q142.23-18.86 142.40-18.75L142.40-18.75L142.40-18.75Q142.78-18.43 142.78-17.55L142.78-17.55L142.78-17.55Q142.78-15.73 141.19-11.99L141.19-11.99L141.19-11.99Q140.14-9.79 139.78-8.61L139.78-8.61L139.78-8.61Q139.43-7.42 139.37-6.33L139.37-6.33L139.37-6.33Q139.37-4.24 140.97-2.86L140.97-2.86L140.97-2.86Q141.52-2.48 141.63-2.04L141.63-2.04L141.63-2.04Q141.74-1.59 141.68-0.82L141.68-0.82L141.68-0.82Q141.57-0.33 141.05-0.03L141.05-0.03L141.05-0.03Q140.53 0.28 139.92 0.28L139.92 0.28L139.92 0.28Q139.21 0.28 138.66-0.11L138.66-0.11ZM160.27 1.04L160.27 1.04Q158.90 1.38 158.40-0.17L158.40-0.17L158.40-0.17Q157.63-2.31 157.63-4.67L157.63-4.67L157.63-4.67Q157.63-5.33 157.69-5.61L157.69-5.61L157.80-6.76L155.65-5.06L155.65-5.06Q153.89-3.52 152.16-2.75L152.16-2.75L152.16-2.75Q150.43-1.98 149.00-1.98L149.00-1.98L149.00-1.98Q148.06-2.15 147.21-2.78L147.21-2.78L147.21-2.78Q146.36-3.41 145.97-4.29L145.97-4.29L145.97-4.29Q145.75-4.73 145.75-5.61L145.75-5.61L145.75-5.61Q145.75-7.65 146.85-10.42L146.85-10.42L146.85-10.42Q147.95-13.20 149.60-15.02L149.60-15.02L149.60-15.02Q151.97-18.59 154.88-18.59L154.88-18.59L154.88-18.59Q156.26-18.59 157.63-17.77L157.63-17.77L157.63-17.77Q159.01-17.21 159.23-17.21L159.23-17.21L159.23-17.21Q159.56-17.21 159.72-17.49L159.72-17.49L159.72-17.49Q159.89-17.77 160.05-18.48L160.05-18.48L160.05-18.48Q160.66-21.01 161.21-22.71L161.21-22.71L161.21-22.71Q162.42-26.34 163.30-28.55L163.30-28.55L163.30-28.55Q164.18-30.75 165.44-33.38L165.44-33.38L165.44-33.38Q165.99-34.54 166.40-34.90L166.40-34.90L166.40-34.90Q166.82-35.26 167.31-35.20L167.31-35.20L167.31-35.20Q168.52-35.20 169.18-33.55L169.18-33.55L169.18-33.55Q169.35-33.16 169.35-32.78L169.35-32.78L169.35-32.78Q169.35-32.40 169.02-31.73L169.02-31.73L169.02-31.73Q167.59-29.26 165.50-23.65L165.50-23.65L165.50-23.65Q163.41-18.04 162.25-13.92L162.25-13.92L162.25-13.92Q161.76-12.10 161.40-8.69L161.40-8.69L161.40-8.69Q161.04-5.28 161.04-3.02L161.04-3.02L161.04-3.02Q161.04-2.04 161.15-1.59L161.15-1.59L161.15-1.59Q161.43-0.66 161.43 0.06L161.43 0.06L161.43 0.06Q161.43 0.60 161.15 0.80L161.15 0.80L161.15 0.80Q160.88 0.99 160.27 1.04L160.27 1.04ZM150.98-5.06L150.98-5.06Q152.24-5.33 154.06-6.71L154.06-6.71L154.06-6.71Q154.39-6.93 155.65-7.87L155.65-7.87L155.65-7.87Q156.92-8.80 157.58-9.85L157.58-9.85L157.58-9.85Q158.24-10.89 158.51-12.21L158.51-12.21L158.51-12.21Q158.57-13.20 158.32-13.83L158.32-13.83L158.32-13.83Q158.07-14.46 157.36-15.07L157.36-15.07L157.36-15.07Q156.81-15.46 155.98-15.46L155.98-15.46L155.98-15.46Q154.50-15.46 153.23-14.24L153.23-14.24L153.23-14.24Q151.75-12.93 150.59-10.84L150.59-10.84L150.59-10.84Q149.44-8.74 148.83-6.00L148.83-6.00L148.83-6.00Q148.67-4.95 149.93-4.95L149.93-4.95L149.93-4.95Q150.59-4.95 150.98-5.06L150.98-5.06ZM173.42-24.09L173.42-24.09Q173.03-24.48 172.76-25.41L172.76-25.41L172.76-25.41Q172.48-26.34 172.76-26.34L172.76-26.34L172.76-26.34Q173.20-26.40 173.77-27.31L173.77-27.31L173.77-27.31Q174.35-28.21 174.30-28.82L174.30-28.82L174.30-28.82Q174.30-29.04 174.46-29.23L174.46-29.23L174.46-29.23Q174.63-29.43 174.85-29.48L174.85-29.48L174.85-29.48Q175.29-29.75 175.62-29.75L175.62-29.75L175.62-29.75Q176.55-29.75 177.32-28.43L177.32-28.43L177.32-28.43Q177.65-27.72 177.65-27.17L177.65-27.17L177.65-27.17Q177.65-26.68 177.38-26.15L177.38-26.15L177.38-26.15Q177.10-25.63 176.39-24.80L176.39-24.80L176.39-24.80Q175.45-23.54 174.63-23.54L174.63-23.54L174.63-23.54Q174.08-23.54 173.42-24.09L173.42-24.09ZM168.08-1.76L168.08-1.76Q167.31-2.53 167.31-3.96L167.31-3.96L167.31-3.96Q167.31-4.73 167.59-5.28L167.59-5.28L167.59-5.28Q167.59-5.55 167.70-5.94L167.70-5.94L167.70-5.94Q167.81-6.33 167.81-6.43L167.81-6.43L167.81-6.43Q167.75-6.76 168.25-8.25L168.25-8.25L168.25-8.25Q169.24-10.45 170.89-16.00L170.89-16.00L170.89-16.00Q170.89-16.28 171.11-16.47L171.11-16.47L171.11-16.47Q171.33-16.66 171.77-16.72L171.77-16.72L171.77-16.72Q172.21-16.83 172.37-16.83L172.37-16.83L172.37-16.83Q172.70-16.83 172.95-16.58L172.95-16.58L172.95-16.58Q173.20-16.34 173.64-15.68L173.64-15.68L173.64-15.68Q173.97-15.35 173.97-14.69L173.97-14.69L173.97-14.69Q173.97-13.64 173.25-12.15L173.25-12.15L173.25-12.15Q172.54-10.56 172.32-9.40L172.32-9.40L172.32-9.40Q171.66-7.92 171.27-6.66L171.27-6.66L171.27-6.66Q171.16-6.33 170.94-5.33L170.94-5.33L170.94-5.33Q170.72-4.34 170.34-3.74L170.34-3.74L170.34-3.74Q170.01-2.20 169.73-1.59L169.73-1.59L169.73-1.59Q169.46-0.99 169.13-0.99L169.13-0.99L169.13-0.99Q168.74-0.99 168.08-1.76L168.08-1.76Z" fill="url(#editing-glowing-gradient)"></path></g></g><style>text {
  font-size: 64px;
  font-family: Arial Black;
  dominant-baseline: central;
  text-anchor: middle;
}</style></svg>